<svg xmlns="http://www.w3.org/2000/svg" viewBox="0 0 127.08 40.94">
  <path d="M27.3 19.45c-.07 0-.12-.05-.12-.12v-7.92c0-.07.05-.12.12-.12h3.17c1.77 0 2.84 1.07 2.84 2.63s-1.08 2.61-2.84 2.61h-1.45s-.07.02-.07.07v2.72c0 .07-.05.12-.12.12h-1.52zm4.25-5.53c0-.66-.44-1.1-1.19-1.1h-1.34s-.07.02-.07.07v2.05s.02.07.07.07h1.34c.74 0 1.19-.43 1.19-1.09zm4.69 5.53c-.07 0-.12-.05-.12-.12v-6.39s-.02-.07-.07-.07h-2.06c-.07 0-.12-.05-.12-.12v-1.33c0-.07.05-.12.12-.12h6.03c.07 0 .12.05.12.12v1.33c0 .07-.05.12-.12.12h-2.06s-.07.02-.07.07v6.39c0 .07-.05.12-.12.12h-1.52zm3.6-1.55c0-.07.05-.12.12-.12h1.43c.07 0 .12.05.12.12v1.44c0 .07-.05.12-.12.12h-1.43c-.07 0-.12-.05-.12-.12V17.9zm7.98-6.48c.02-.07.07-.12.16-.12h1.51c.08 0 .13.05.16.12l2.76 7.92c.02.07 0 .12-.08.12h-1.56c-.08 0-.13-.04-.16-.12l-.47-1.43h-2.85l-.46 1.43c-.02.08-.07.12-.16.12H45.1c-.08 0-.11-.05-.08-.12l2.81-7.92zm1.83 4.99l-.92-2.85h-.04l-.92 2.85h1.88zm8.21 3.04c-.11 0-.14-.04-.18-.12l-1.4-2.99h-1.09s-.07.02-.07.07v2.91c0 .07-.05.12-.12.12h-1.52c-.07 0-.12-.05-.12-.12V11.4c0-.07.05-.12.12-.12h3.25c1.67 0 2.77 1.04 2.77 2.53 0 1.04-.55 1.87-1.45 2.27l1.61 3.21c.04.07 0 .14-.08.14h-1.7zm-.13-5.62c0-.61-.43-1.01-1.1-1.01h-1.44s-.07.02-.07.07v1.88s.02.07.07.07h1.44c.67 0 1.1-.4 1.1-1.02zm4.88 5.62c-.07 0-.12-.05-.12-.12v-6.39s-.02-.07-.07-.07h-2.06c-.07 0-.12-.05-.12-.12v-1.33c0-.07.05-.12.12-.12h6.03c.07 0 .12.05.12.12v1.33c0 .07-.05.12-.12.12h-2.06s-.07.02-.07.07v6.39c0 .07-.05.12-.12.12h-1.52zm6.32-8.03c.02-.07.07-.12.16-.12h1.51c.08 0 .13.05.16.12l2.76 7.92c.02.07 0 .12-.08.12h-1.56c-.08 0-.13-.04-.16-.12l-.47-1.43H68.4l-.46 1.43c-.02.08-.07.12-.16.12h-1.57c-.08 0-.11-.05-.08-.12l2.81-7.92zm1.84 4.99l-.92-2.85h-.04l-.92 2.85h1.88zm3.69-4.99c0-.07.05-.12.12-.12h1.44c.08 0 .16.04.2.12l2.88 5.13h.06v-5.13c0-.07.05-.12.12-.12h1.35c.07 0 .12.05.12.12v7.92c0 .07-.05.12-.12.12H79.2c-.1 0-.16-.04-.2-.12l-2.89-5.12h-.06v5.12c0 .07-.05.12-.12.12h-1.36c-.07 0-.12-.05-.12-.12v-7.92zm7.86 0c0-.07.05-.12.12-.12h1.52c.07 0 .12.05.12.12v7.92c0 .07-.05.12-.12.12h-1.52c-.07 0-.12-.05-.12-.12v-7.92zm5.52 0c.02-.07.07-.12.16-.12h1.51c.08 0 .13.05.16.12l2.76 7.92c.02.07 0 .12-.08.12h-1.56c-.08 0-.13-.04-.16-.12l-.47-1.43h-2.85l-.46 1.43c-.02.08-.07.12-.16.12h-1.57c-.08 0-.11-.05-.08-.12l2.81-7.92zm1.83 4.99l-.92-2.85h-.04l-.92 2.85h1.88zm3.14-1.03c0-1.21.05-1.67.23-2.23.42-1.32 1.55-1.98 3-1.98 1.52 0 2.52.76 2.9 1.74.04.07.02.14-.05.18l-1.28.54c-.08.02-.14 0-.17-.06-.32-.55-.73-.84-1.4-.84s-1.13.35-1.31.91c-.1.29-.13.67-.13 1.74s.04 1.46.13 1.75c.18.56.62.9 1.33.9.61 0 1.14-.3 1.31-.84.06-.2.1-.46.1-.8 0-.05-.02-.07-.07-.07h-1.1c-.07 0-.12-.05-.12-.12v-1.15c0-.07.05-.12.12-.12h2.81c.07 0 .12.05.12.12v.67c0 .72-.06 1.39-.2 1.83-.41 1.31-1.54 2.04-2.97 2.04s-2.58-.66-3-1.98c-.18-.56-.23-1.02-.23-2.23zm9.6-3.96c.02-.07.07-.12.16-.12h1.51c.08 0 .13.05.16.12l2.76 7.92c.02.07 0 .12-.08.12h-1.56c-.08 0-.13-.04-.16-.12l-.47-1.43h-2.85l-.46 1.43c-.02.08-.07.12-.16.12h-1.57c-.08 0-.11-.05-.08-.12l2.81-7.92zm1.83 4.99l-.92-2.85h-.04l-.92 2.85h1.88zm-77.06 6.01c0-.07.05-.12.12-.12h1.43c.1 0 .16.04.19.12l2.06 4.65h.05l2.03-4.65c.04-.08.1-.12.19-.12h1.4c.07 0 .12.05.12.12v7.92c0 .07-.05.12-.12.12h-1.36c-.07 0-.12-.05-.12-.12v-4.59h-.05l-1.51 3.44c-.05.11-.12.16-.23.16h-.83c-.11 0-.18-.05-.23-.16l-1.51-3.44h-.05v4.59c0 .07-.05.12-.12.12h-1.36c-.07 0-.12-.05-.12-.12v-7.92zm9.15 0c0-.07.05-.12.12-.12h5.23c.07 0 .12.05.12.12v1.28c0 .07-.05.12-.12.12h-3.51s-.07.02-.07.07v1.62s.02.07.07.07h2.93c.07 0 .12.05.12.12v1.27c0 .07-.05.12-.12.12h-2.93s-.07.02-.07.07v1.69s.02.07.07.07h3.51c.07 0 .12.05.12.12v1.28c0 .07-.05.12-.12.12h-5.23c-.07 0-.12-.05-.12-.12V22.4zm6.57 3.96c0-1.21.05-1.67.23-2.23.42-1.32 1.55-1.98 3-1.98 1.52 0 2.52.76 2.9 1.74.04.07.02.14-.05.18l-1.28.54c-.08.02-.14 0-.17-.06-.32-.55-.73-.84-1.4-.84s-1.13.35-1.31.91c-.1.29-.13.67-.13 1.74s.04 1.46.13 1.75c.18.56.62.9 1.33.9.61 0 1.14-.3 1.31-.84.06-.2.1-.46.1-.8 0-.05-.02-.07-.07-.07h-1.1c-.07 0-.12-.05-.12-.12v-1.15c0-.07.05-.12.12-.12h2.81c.07 0 .12.05.12.12v.67c0 .72-.06 1.39-.2 1.83-.41 1.31-1.54 2.04-2.97 2.04s-2.58-.66-3-1.98c-.18-.56-.23-1.02-.23-2.23zm9.6-3.96c.02-.07.07-.12.16-.12h1.51c.08 0 .13.05.16.12l2.76 7.92c.02.07 0 .12-.08.12h-1.56c-.08 0-.13-.04-.16-.12l-.47-1.43h-2.85l-.46 1.43c-.02.08-.07.12-.16.12h-1.57c-.08 0-.11-.05-.08-.12l2.81-7.92zm1.83 4.99l-.92-2.85h-.04l-.92 2.85h1.88zm3.7-4.99c0-.07.05-.12.12-.12h1.52c.07 0 .12.05.12.12v3.06s.02.07.07.07h2.66s.07-.02.07-.07v-3.06c0-.07.05-.12.12-.12h1.52c.07 0 .12.05.12.12v7.92c0 .07-.05.12-.12.12h-1.52c-.07 0-.12-.05-.12-.12V27.2s-.02-.07-.07-.07h-2.66s-.07.02-.07.07v3.14c0 .07-.05.12-.12.12h-1.52c-.07 0-.12-.05-.12-.12v-7.92zm10.51 3.96c0-1.21.05-1.67.23-2.23.42-1.32 1.55-1.98 3-1.98 1.52 0 2.52.76 2.9 1.74.04.07.02.14-.05.18l-1.28.54c-.08.02-.14 0-.17-.06-.32-.55-.73-.84-1.4-.84s-1.13.35-1.31.91c-.1.29-.13.67-.13 1.74s.04 1.46.13 1.75c.18.56.62.9 1.33.9.61 0 1.14-.3 1.31-.84.06-.2.1-.46.1-.8 0-.05-.02-.07-.07-.07h-1.1c-.07 0-.12-.05-.12-.12v-1.15c0-.07.05-.12.12-.12h2.81c.07 0 .12.05.12.12v.67c0 .72-.06 1.39-.2 1.83-.41 1.31-1.54 2.04-2.97 2.04s-2.58-.66-3-1.98c-.18-.56-.23-1.02-.23-2.23zm7.75-3.96c0-.07.05-.12.12-.12h5.23c.07 0 .12.05.12.12v1.28c0 .07-.05.12-.12.12h-3.51s-.07.02-.07.07v1.62s.02.07.07.07h2.93c.07 0 .12.05.12.12v1.27c0 .07-.05.12-.12.12h-2.93s-.07.02-.07.07v1.69s.02.07.07.07h3.51c.07 0 .12.05.12.12v1.28c0 .07-.05.12-.12.12h-5.23c-.07 0-.12-.05-.12-.12V22.4zm6.78 0c0-.07.05-.12.12-.12h1.43c.1 0 .16.04.19.12l2.06 4.65h.05l2.03-4.65c.04-.08.1-.12.19-.12h1.4c.07 0 .12.05.12.12v7.92c0 .07-.05.12-.12.12h-1.36c-.07 0-.12-.05-.12-.12v-4.59h-.05l-1.51 3.44c-.05.11-.12.16-.23.16h-.83c-.11 0-.18-.05-.23-.16l-1.51-3.44h-.05v4.59c0 .07-.05.12-.12.12h-1.36c-.07 0-.12-.05-.12-.12v-7.92zm9.16 0c0-.07.05-.12.12-.12h1.52c.07 0 .12.05.12.12v7.92c0 .07-.05.12-.12.12h-1.52c-.07 0-.12-.05-.12-.12v-7.92zm3.32 0c0-.07.05-.12.12-.12h1.52c.07 0 .12.05.12.12v6.39s.02.07.07.07h3.6c.07 0 .12.05.12.12v1.33c0 .07-.05.12-.12.12h-5.31c-.07 0-.12-.05-.12-.12v-7.92zm8.8 0c.02-.07.07-.12.16-.12h1.51c.08 0 .13.05.16.12l2.76 7.92c.02.07 0 .12-.08.12h-1.56c-.08 0-.13-.04-.16-.12l-.47-1.43h-2.85l-.46 1.43c-.02.08-.07.12-.16.12h-1.57c-.08 0-.11-.05-.08-.12l2.81-7.92zm1.84 4.99l-.92-2.85h-.04l-.92 2.85h1.88zm3.69-4.99c0-.07.05-.12.12-.12h1.44c.08 0 .16.04.2.12l2.88 5.13h.06v-5.13c0-.07.05-.12.12-.12h1.36c.07 0 .12.05.12.12v7.92c0 .07-.05.12-.12.12h-1.43c-.1 0-.16-.04-.2-.12l-2.89-5.12h-.06v5.12c0 .07-.05.12-.12.12H110c-.07 0-.12-.05-.12-.12v-7.92zm7.65 3.96c0-1.21.05-1.67.23-2.23.42-1.32 1.55-1.98 3-1.98 1.52 0 2.52.76 2.9 1.74.04.07.02.14-.05.18l-1.28.54c-.08.02-.14 0-.17-.06-.32-.55-.73-.84-1.4-.84s-1.13.35-1.31.91c-.1.29-.13.67-.13 1.74s.04 1.46.13 1.75c.18.56.62.9 1.33.9.61 0 1.14-.3 1.31-.84.06-.2.1-.46.1-.8 0-.05-.02-.07-.07-.07h-1.1c-.07 0-.12-.05-.12-.12v-1.15c0-.07.05-.12.12-.12h2.81c.07 0 .12.05.12.12v.67c0 .72-.06 1.39-.2 1.83-.41 1.31-1.54 2.04-2.97 2.04s-2.58-.66-3-1.98c-.18-.56-.23-1.02-.23-2.23z"/>
  <path fill="red" d="M22.33 25.54L12.97 9.56.54 31.21h4.74l9.02-8.93-5.42 2.62 4.14-7.05 4.48 7.69h4.83z"/>
  <path fill="none" d="M0 0h127.08v40.94H0z"/>
</svg>
